<?xml version="1.0" encoding="utf-8"?> <!-- Generator: IcoMoon.io --> <!DOCTYPE svg PUBLIC "-//W3C//DTD SVG 1.1//EN" "http://www.w3.org/Graphics/SVG/1.1/DTD/svg11.dtd"> <svg width="500.00000000000006" height="500" viewBox="0 0 500 500" xmlns="http://www.w3.org/2000/svg" xmlns:xlink="http://www.w3.org/1999/xlink" fill="#444444"><path d="M 375,395L 50,395 l0-225 l 64.875,0 c0,0, 17.225-22.4, 54.25-50L 25,120 c-13.8,0-25,11.2-25,25l0,275 c0,13.825, 11.2,25, 25,25l 375,0 c 13.825,0, 25-11.175, 25-25l0-93.65 l-50,41.125L 375,395 z M 334.050,221.25l0,88.75 L 500,179.975L 334.050,55l0,78.25 C 132.5,133.275, 132.5,332.5, 132.5,332.5C 189.55,238.8, 224.65,221.25, 334.050,221.25z" ></path></svg>