<?xml version="1.0" encoding="utf-8"?> <!-- Generator: IcoMoon.io --> <!DOCTYPE svg PUBLIC "-//W3C//DTD SVG 1.1//EN" "http://www.w3.org/Graphics/SVG/1.1/DTD/svg11.dtd"> <svg width="352" height="32" viewBox="0 0 352 32" fill="#444444" xmlns="http://www.w3.org/2000/svg" xmlns:xlink="http://www.w3.org/1999/xlink"><path d="M 24,25.28L 3.2,25.28 l0-14.4 l 4.152,0 c0,0, 1.102-1.434, 3.472-3.2L 1.6,7.68 c-0.883,0-1.6,0.717-1.6,1.6l0,17.6 c0,0.885, 0.717,1.6, 1.6,1.6l 24,0 c 0.885,0, 1.6-0.715, 1.6-1.6l0-5.994 l-3.2,2.632L 24,25.28 z M 21.379,14.16l0,5.68 L 32,11.518L 21.379,3.52l0,5.008 C 8.48,8.53, 8.48,21.28, 8.48,21.28C 12.131,15.283, 14.378,14.16, 21.379,14.16zM 93.794,2.333l-0.126-0.126c-2.942-2.942-7.756-2.942-10.698,0L 76.154,9.023 c-2.942,2.942-2.942,7.755,0,10.697l 0.126,0.126c 0.245,0.245, 0.505,0.466, 0.773,0.671l 2.495-2.495 c-0.291-0.172-0.566-0.377-0.816-0.627l-0.126-0.126c-1.597-1.597-1.597-4.196,0-5.793L 85.422,4.659 c 1.597-1.597, 4.196-1.597, 5.793,0l 0.126,0.126c 1.597,1.597, 1.597,4.197,0,5.793l-3.084,3.084 c 0.535,1.322, 0.789,2.731, 0.767,4.137l 4.769-4.769C 96.735,10.088, 96.735,5.274, 93.794,2.333zM 83.72,12.154c-0.245-0.245-0.505-0.466-0.773-0.67l-2.495,2.495c 0.291,0.172, 0.566,0.377, 0.816,0.627l 0.126,0.126 c 1.597,1.597, 1.597,4.196,0,5.793L 74.578,27.342c-1.597,1.597-4.196,1.597-5.793,0l-0.126-0.126 c-1.597-1.597-1.597-4.196,0-5.793l 3.084-3.084c-0.535-1.322-0.789-2.731-0.767-4.137l-4.769,4.769 c-2.942,2.942-2.942,7.756,0,10.698l 0.126,0.126c 2.942,2.942, 7.756,2.942, 10.698,0l 6.816-6.816 c 2.942-2.942, 2.942-7.756,0-10.698L 83.72,12.154zM 141.656,25.568 C 141.656,27.913 140.207,29.767 136.101,29.917 C 133.696,28.549 131.68,26.575 130.261,24.202 C 131.001,22.374 133.314,20.982 135.958,21.011 C 136.709,21.019 137.408,21.14 138.044,21.346 C 139.791,22.56 141.2,23.319 141.554,24.703 C 141.62,24.983 141.656,25.272 141.656,25.568 ZM 144,0C 139.377,0, 135.213,1.962, 132.292,5.097c 1.154-0.639, 2.517-1.020, 3.966-1.020c 2.096,0, 8.014,0, 8.014,0 L 142.48,5.956L 140.377,5.956 c 1.484,0.85, 2.273,2.602, 2.273,4.532c0,1.772-0.982,3.199-2.368,4.283 c-1.353,1.056-1.609,1.499-1.609,2.398c0,0.767, 1.616,1.909, 2.359,2.467c 2.588,1.941, 3.112,3.162, 3.112,5.59 c0,2.46-2.154,4.91-5.808,5.742C 140.097,31.634, 142.006,32, 144,32c 8.837,0, 16-7.163, 16-16S 152.837,0, 144,0z M 152,12l0,4 l-2,0 l0-4 l-4,0 l0-2 l 4,0 L 150,6 l 2,0 l0,4 l 4,0 l0,2 L 152,12 zM 139.43,10.608 C 139.803,13.445 138.56,15.271 136.401,15.206 C 134.241,15.141 132.188,13.16 131.815,10.324 C 131.443,7.487 132.891,5.316 135.051,5.38 C 137.21,5.445 139.058,7.772 139.43,10.608 ZM 134.903,20.065 C 132.569,20.065 130.586,20.87 129.189,22.060 C 128.423,20.191 128,18.145 128,16 C 128,14.226 128.289,12.52 128.822,10.925 C 129.053,14.033 131.24,16.431 134.853,16.431 C 135.119,16.431 135.376,16.417 135.63,16.399 C 135.381,16.875 135.204,17.405 135.204,17.961 C 135.204,18.898 135.719,19.432 136.356,20.052 C 135.875,20.052 135.41,20.065 134.903,20.065 ZM 208,0 C 216.837,0 224,7.163 224,16 C 224,24.159 217.893,30.892 210,31.876 L 210,20 L 215.5,20 L 216,16 L 210,16 L 210,14 C 210,12.895 210.895,12 212,12 L 216,12 L 216,8 L 212,8 C 208.686,8 206,10.686 206,14 L 206,16 L 203,16 L 203,20 L 206,20 L 206,27.906 L 206,31.496 L 206,31.876 C 198.107,30.892 192,24.159 192,16 C 192,7.163 199.163,0 208,0 ZM 272,0C 263.163,0, 256,7.163, 256,16s 7.163,16, 16,16s 16-7.163, 16-16S 280.837,0, 272,0z M 281.195,11.284 c 0.009,0.203, 0.014,0.408, 0.014,0.614c0,6.269-4.772,13.499-13.499,13.499c-2.679,0-5.173-0.785-7.273-2.132 c 0.371,0.044, 0.749,0.066, 1.132,0.066c 2.223,0, 4.268-0.759, 5.892-2.031c-2.076-0.038-3.828-1.41-4.432-3.295 c 0.29,0.055, 0.587,0.085, 0.893,0.085c 0.433,0, 0.852-0.058, 1.25-0.166c-2.17-0.436-3.806-2.353-3.806-4.652 c0-0.020,0-0.040, 0.001-0.060c 0.64,0.355, 1.371,0.569, 2.149,0.593c-1.273-0.851-2.111-2.303-2.111-3.949 c0-0.869, 0.234-1.685, 0.642-2.385c 2.34,2.87, 5.836,4.759, 9.779,4.957c-0.081-0.347-0.123-0.709-0.123-1.081 c0-2.62, 2.124-4.744, 4.744-4.744c 1.365,0, 2.598,0.576, 3.463,1.498c 1.081-0.213, 2.096-0.608, 3.013-1.151 c-0.354,1.108-1.107,2.038-2.086,2.625c 0.96-0.115, 1.874-0.37, 2.725-0.747 C 282.927,9.779, 282.122,10.615, 281.195,11.284zM 336,0C 327.163,0, 320,7.163, 320,16s 7.163,16, 16,16c 8.837,0, 16-7.163, 16-16S 344.837,0, 336,0z M 337.551,21.379 c-1.454-0.113-2.064-0.833-3.203-1.525C 333.721,23.14, 332.956,26.291, 330.688,27.937 c-0.7-4.968, 1.028-8.699, 1.83-12.66c-1.368-2.303, 0.165-6.939, 3.051-5.796 c 3.551,1.405-3.075,8.563, 1.373,9.457c 4.644,0.933, 6.54-8.058, 3.661-10.982 c-4.161-4.222-12.112-0.096-11.135,5.949c 0.238,1.478, 1.765,1.926, 0.61,3.966c-2.663-0.59-3.458-2.691-3.356-5.491 c 0.165-4.584, 4.118-7.793, 8.084-8.236c 5.015-0.561, 9.722,1.841, 10.372,6.559 C 345.91,16.026, 342.914,21.793, 337.551,21.379z"></path></svg>